# xmcd CD database file
#
# Track frame offsets:
#	150
#	23814
#	38694
#	67218
#	83115
#	111567
#	134614
#	162168
#	193369
#	211076
#	226931
#	250410
#	273234
#	289304
#	314196
#	334246
#
# Disc length: 4696 seconds
#
# Revision: 0
# Processed by: cddbd v1.5.2PL0 Copyright (c) Steve Scherf et al.
# Submitted via: CDex 1.70beta2
#
DISCID=fd125610
DTITLE=Divers - The Scandinavian Touch (Jazzmag n°625)
DYEAR=2011
DGENRE=Jazz
TTITLE0=Jacob Karlzon - The big picture
TTITLE1=Bobo Moreno, Bo Stief, Ole Kock Hansen - 50 ways to leave your lover
TTITLE2=Bollani, Bodilsen, Lund - Mi ritorno in mente
TTITLE3=Inger Marie - Somethings never change
TTITLE4=Eliel Lazo - Un gallego en La Habana
TTITLE5=Katrine Madsen - Simple life
TTITLE6=Scott Hamilton, Jesper Thilo - Blue Lou
TTITLE7=Jesper Bodilsen - One of a kind
TTITLE8=Hanne Boel - Funny how time slips away
TTITLE9=Gunde on Garner - Tango Jalousie
TTITLE10=Mikkel Nordso - Blue life
TTITLE11=Marilyn Mazur - Essence
TTITLE12=Blue Lotus - Rainy day
TTITLE13=Line Kruse - Penguin parade
TTITLE14=Jonas Johansen - Resurrecting benjamin Blue
TTITLE15=Offpiste Gurus - I wanna go back
EXTD=YEAR: 2011
EXTT0=
EXTT1=
EXTT2=
EXTT3=
EXTT4=
EXTT5=
EXTT6=
EXTT7=
EXTT8=
EXTT9=
EXTT10=
EXTT11=
EXTT12=
EXTT13=
EXTT14=
EXTT15=
PLAYORDER=
